# xmcd CD database file
#
# Track frame offsets:
#	183
#	19358
#	44983
#	71303
#	113235
#	144908
#	164825
#
# Disc length: 2449 seconds
#
# Revision: 0
# Processed by: cddbd v1.5.2PL0 Copyright (c) Steve Scherf et al.
# Submitted via: CDex 1.70beta2
#
DISCID=67098f07
DTITLE=Chico Freeman - Destiny's Dance
DYEAR=1981
DGENRE=Jazz
TTITLE0=Destiny's dance
TTITLE1=Same shame
TTITLE2=Crossing the Sudan
TTITLE3=Wilpan's walk
TTITLE4=Embracing oneness
TTITLE5=C and M
TTITLE6=Destiny's dance (reprise)
EXTD=YEAR: 1981
EXTT0=
EXTT1=
EXTT2=
EXTT3=
EXTT4=
EXTT5=
EXTT6=
PLAYORDER=
